<svg version="1.0" xmlns="http://www.w3.org/2000/svg" width="240.000000pt" height="240.000000pt"
     viewBox="0 0 268.000000 268.000000" preserveAspectRatio="xMidYMid meet">
    <g transform="translate(0.000000,240.000000) scale(0.100000,-0.100000)" fill="#7F1D1D" stroke="none">
        <path d="M878 1563 c-3 -1007 -3 -1029 -23 -1062 -54 -91 -205 -95 -269 -8 -19 26 -21 45 -24 233 l-3 204 -176 0 -175 0 4 -237 c4 -190 9 -249 23 -293 52 -163 130 -241 295 -296 51 -17 108 -19 718 -22 l662 -3 0 550 0 551 240 0 240 0 0 175 0 175 -240 0 -240 0 0 355 0 355 280 0 280 0 0 175 0 175 -795 0 -794 0 -3 -1027z m599 660 c24 -11 42 -30 54 -57 18 -39 19 -83 19 -811 0 -859 4 -814 -69 -862 -30 -20 -47 -23 -137 -23 l-104 0 0 885 0 885 101 0 c74 0 111 -5 136 -17z"/>
    </g>
</svg>
